<svg data-v-fde0c5aa="" xmlns="http://www.w3.org/2000/svg" viewBox="0 0 300 300" class="iconLeft"><!----><defs data-v-fde0c5aa=""><!----></defs><rect data-v-fde0c5aa="" fill="transparent" x="0" y="0" class="logo-background-square"></rect><defs data-v-fde0c5aa=""><linearGradient data-v-fde0c5aa="" gradientTransform="rotate(25)" id="9beca681-4de0-4f8d-b546-252b21bbd9dd" x1="0%" y1="0%" x2="100%" y2="0%"><stop data-v-fde0c5aa="" offset="0%" stop-color="#000000" stop-opacity="1"></stop><stop data-v-fde0c5aa="" offset="100%" stop-color="#000000" stop-opacity="1"></stop></linearGradient></defs><g data-v-fde0c5aa="" id="b0d2be17-ae56-4aca-a2c0-20d94ffb6c45" fill="url(#9beca681-4de0-4f8d-b546-252b21bbd9dd)" transform="matrix(3.5150278555396754,0,0,3.5150278555396754,105.3739144399564,119.20835601899437)"><path d="M13.02 4.96C13.26 4.90 13.37 4.76 13.37 4.52L13.37 3.70L12.32 3.70L10.89 3.70C10.81 3.70 10.74 3.71 10.68 3.71C10.63 3.71 10.57 3.72 10.51 3.74C10.46 3.75 10.42 3.79 10.37 3.84C10.33 3.88 10.30 3.93 10.26 4.00L7.27 9.60C7.18 9.76 7.11 9.91 7.04 10.08C6.97 10.25 6.92 10.40 6.85 10.57C6.78 10.40 6.71 10.23 6.64 10.08C6.57 9.93 6.51 9.77 6.43 9.62L3.40 4.00C3.36 3.93 3.32 3.88 3.28 3.84C3.23 3.79 3.21 3.75 3.15 3.74C3.11 3.72 3.04 3.71 2.98 3.71C2.93 3.71 2.84 3.70 2.76 3.70L1.34 3.70L0.28 3.70L0.28 4.52C0.28 4.76 0.39 4.90 0.63 4.96C0.64 4.96 0.67 4.96 0.71 4.97C0.76 4.97 0.83 5.00 0.92 5.01C1.02 5.03 1.18 5.05 1.34 5.08L1.34 12.43C1.18 12.46 1.02 12.49 0.92 12.50C0.83 12.52 0.76 12.53 0.71 12.54C0.67 12.56 0.64 12.56 0.63 12.56C0.39 12.61 0.28 12.75 0.28 12.99L0.28 13.82L1.34 13.82L3.00 13.82L4.26 13.82L4.26 12.99C4.26 12.75 4.14 12.61 3.91 12.56C3.88 12.56 3.58 12.52 3.00 12.43L3.00 7.28C3.00 7.15 3.00 7.01 2.98 6.87C2.97 6.73 2.97 6.58 2.95 6.43L6.05 12.18C6.12 12.31 6.22 12.42 6.33 12.49C6.44 12.56 6.57 12.60 6.72 12.60L6.97 12.60C7.13 12.60 7.25 12.56 7.36 12.49C7.48 12.42 7.57 12.31 7.64 12.18L10.70 6.44C10.68 6.59 10.67 6.75 10.67 6.89C10.67 7.03 10.65 7.15 10.65 7.28L10.65 12.43C10.08 12.52 9.77 12.56 9.74 12.56C9.51 12.61 9.39 12.75 9.39 12.99L9.39 13.82L10.65 13.82L12.32 13.82L13.37 13.82L13.37 12.99C13.37 12.75 13.26 12.61 13.02 12.56C13.01 12.56 12.98 12.54 12.94 12.54C12.89 12.54 12.82 12.52 12.73 12.50C12.63 12.49 12.49 12.46 12.32 12.43L12.32 5.08C12.49 5.05 12.63 5.03 12.73 5.01C12.82 5.00 12.89 4.97 12.94 4.97C12.98 4.97 13.01 4.96 13.02 4.96ZM14.99 3.70L13.93 3.70L13.93 4.52C13.93 4.76 14.04 4.90 14.28 4.96C14.29 4.96 14.32 4.97 14.36 4.97C14.41 4.97 14.48 5.00 14.57 5.01C14.67 5.03 14.83 5.05 14.99 5.08L14.99 12.43C14.83 12.46 14.67 12.49 14.57 12.50C14.48 12.52 14.41 12.54 14.36 12.54C14.32 12.54 14.29 12.56 14.28 12.56C14.04 12.61 13.93 12.75 13.93 12.99L13.93 13.82L14.99 13.82L21.38 13.82L21.38 12.84L21.38 12.31L21.38 11.14L21.31 11.14L21.14 11.14L20.57 11.14C20.38 11.14 20.29 11.24 20.24 11.41C20.23 11.52 20.19 11.82 20.15 12.31L16.88 12.31L16.88 9.45L20.31 9.45L20.31 7.99L16.88 7.99L16.88 5.19L20.15 5.19C20.19 5.68 20.23 5.98 20.24 6.09C20.29 6.26 20.38 6.36 20.57 6.36L21.14 6.36L21.31 6.36L21.38 6.36L21.38 5.19L21.38 4.68L21.38 3.70ZM32.52 12.74C32.45 12.71 32.19 12.60 31.75 12.42L28.32 3.70L26.39 3.70L22.97 12.42C22.54 12.60 22.27 12.71 22.20 12.74C22.02 12.82 21.92 12.94 21.92 13.10L21.92 13.82L22.41 13.82L23.52 13.82L23.74 13.82L23.88 13.82L25.34 13.82L25.34 13.10C25.34 12.94 25.24 12.82 25.06 12.74C25.03 12.73 24.93 12.70 24.78 12.63L24.82 12.54L25.34 11.10L29.37 11.10L29.88 12.47L29.93 12.63C29.78 12.70 29.68 12.73 29.65 12.74C29.47 12.82 29.37 12.94 29.37 13.10L29.37 13.82L30.84 13.82L30.97 13.82L31.21 13.82L32.30 13.82L32.79 13.82L32.79 13.10C32.79 12.94 32.70 12.81 32.52 12.74ZM26.98 6.64C27.03 6.48 27.10 6.31 27.16 6.10C27.22 5.89 27.29 5.67 27.36 5.43C27.43 5.67 27.48 5.91 27.55 6.10C27.62 6.30 27.68 6.47 27.73 6.62L28.90 9.77L25.83 9.77ZM42.94 3.70L41.27 3.70L40.01 3.70L40.01 4.52C40.01 4.76 40.12 4.90 40.36 4.96C40.39 4.96 40.68 5.00 41.27 5.08L41.27 9.84C41.27 9.98 41.27 10.14 41.29 10.29C41.30 10.44 41.31 10.60 41.33 10.77L36.01 4.00C35.95 3.93 35.91 3.88 35.87 3.84C35.83 3.79 35.78 3.77 35.74 3.75C35.70 3.72 35.64 3.71 35.59 3.71C35.53 3.71 35.46 3.70 35.38 3.70L34.40 3.70L33.33 3.70L33.33 4.52C33.33 4.76 33.45 4.90 33.68 4.96C33.70 4.96 33.73 4.97 33.77 4.97C33.81 4.97 33.88 5.00 33.98 5.01C34.08 5.03 34.23 5.05 34.40 5.08L34.40 12.43C34.23 12.46 34.08 12.49 33.98 12.50C33.88 12.52 33.81 12.53 33.77 12.54C33.73 12.56 33.70 12.56 33.68 12.56C33.45 12.61 33.33 12.75 33.33 12.99L33.33 13.82L34.40 13.82L36.05 13.82L37.31 13.82L37.31 12.99C37.31 12.75 37.20 12.61 36.96 12.56C36.93 12.56 36.64 12.52 36.05 12.43L36.05 7.60C36.05 7.48 36.04 7.34 36.04 7.20C36.04 7.06 36.02 6.92 36.01 6.76L41.30 13.50C41.40 13.62 41.50 13.71 41.59 13.75C41.69 13.79 41.80 13.82 41.96 13.82L42.94 13.82L42.94 5.08C43.11 5.05 43.25 5.03 43.34 5.01C43.44 5.00 43.51 4.97 43.55 4.97C43.60 4.97 43.62 4.96 43.64 4.96C43.88 4.90 43.99 4.76 43.99 4.52L43.99 3.70Z"></path></g><defs data-v-fde0c5aa=""><!----></defs><g data-v-fde0c5aa="" id="d64482e5-29fc-475a-a55f-aadd8046ce61" stroke="none" fill="#D3D7D7" transform="matrix(1.6674413201155547,0,0,1.6674413201155547,40,123.3476191859866)"><path d="M0 31.984h32v-32H0v32zm2-30h28v28H2v-28z"></path><path d="M6.439 16.831h8.959l-4.48-7.741zM16.602 13.331h8.959L21.082 5.59zM6.439 26.41h8.959l-4.48-7.741zM16.602 22.91h8.959l-4.479-7.741z"></path></g><!----></svg>